<svg width="63" height="64" viewBox="0 0 63 64" fill="none" xmlns="http://www.w3.org/2000/svg">
<path d="M28.7188 1.21035L28.3004 1.6287V5.02475V8.42081H24.9044H21.5083L21.09 8.83916L20.6716 9.25752V11.62V13.9825L21.09 14.4008L21.5083 14.8192H24.9044H28.3004V17.2678V19.7287L28.6204 19.9748C29.0387 20.307 29.4079 20.307 29.8262 19.9748L30.1461 19.7287V16.5541C30.1461 13.6379 30.1338 13.3672 29.9246 13.1827C29.7278 12.9981 29.2725 12.9735 26.1102 12.9735H22.5173V11.62V10.2665H26.1225C29.4694 10.2665 29.7524 10.2542 29.937 10.045C30.1215 9.84814 30.1461 9.39287 30.1461 6.2306V2.63767H31.4996H32.8531V6.2429C32.8531 9.58974 32.8654 9.87275 33.0746 10.0573C33.2715 10.2419 33.7267 10.2665 36.889 10.2665H40.4819V11.62V12.9735H36.8767C33.5299 12.9735 33.2469 12.9858 33.0623 13.195C32.8777 13.4041 32.8531 14.1055 32.8531 20.7007V27.985H31.4996H30.1461V25.5487C30.1461 23.1493 30.1461 23.1001 29.8631 22.8417C29.5063 22.4972 28.928 22.4972 28.5711 22.8171C28.3128 23.0632 28.3004 23.1617 28.3004 25.5241V27.9604L25.8149 28.0096C23.514 28.0466 23.2679 28.0712 22.7511 28.3296C21.3853 29.0063 20.5609 30.1383 20.4501 31.5041L20.3886 32.2916H17.7062H15.0115V31.1104C15.0115 29.7692 14.8393 29.3385 14.1994 29.0309C13.6211 28.7602 6.06614 28.7602 5.48783 29.0309C4.84799 29.3385 4.67573 29.7692 4.67573 31.1104V32.2916H2.99C1.0828 32.2916 0.713663 32.4147 0.246091 33.1775C0.0246091 33.5467 0 33.8051 0 36.106C0 38.407 0.0246091 38.6654 0.246091 39.0345C0.590618 39.6005 1.18124 39.9204 1.8826 39.9204H2.46091V42.9966V46.085L2.76852 46.3803C3.16227 46.7864 3.72828 46.7864 4.12202 46.3803L4.42964 46.085V42.9966V39.9204H9.22841H14.0272V47.8569V55.7933H9.22841H4.42964V52.7172V49.6287L4.12202 49.3334C3.72828 48.9274 3.16227 48.9274 2.76852 49.3334L2.46091 49.6287V55.6456V61.6626L2.74391 62.204C2.92848 62.5362 3.21149 62.8438 3.5191 63.0161L3.99898 63.2991H31.4996H59.0003L59.4802 63.0161C59.7878 62.8438 60.0708 62.5362 60.2553 62.204L60.5383 61.6626V50.7854V39.9204H61.129C61.818 39.9204 62.4086 39.6005 62.7532 39.0345C62.9746 38.6654 62.9993 38.407 62.9993 36.106C62.9993 33.8051 62.9746 33.5467 62.7532 33.1775C62.2856 32.4147 61.9165 32.2916 60.0216 32.2916H58.3235V31.1104C58.3235 29.7692 58.1513 29.3385 57.5114 29.0309C56.9331 28.7602 49.3781 28.7602 48.7998 29.0309C48.16 29.3385 47.9877 29.7692 47.9877 31.1104V32.2916H45.293H42.6106L42.5491 31.5041C42.4384 30.1383 41.7001 29.1047 40.322 28.3911C39.6945 28.0589 39.6206 28.0466 37.1966 28.0096L34.6988 27.9604V21.3898V14.8192H38.0949H41.4909L41.9093 14.4008L42.3276 13.9825V11.62V9.25752L41.9093 8.83916L41.4909 8.42081H38.0949H34.6988V5.02475V1.6287L34.2805 1.21035L33.8621 0.791992H31.4996H29.1372L28.7188 1.21035ZM39.4484 30.1875C40.0021 30.4336 40.4204 30.9381 40.5435 31.5041C40.5927 31.701 40.6542 31.9594 40.6911 32.0701C40.7403 32.2793 40.2482 32.2916 31.4996 32.2916H22.2712L22.345 31.9471C22.382 31.7625 22.4435 31.5041 22.4804 31.3688C22.6034 30.9012 23.0464 30.4213 23.5509 30.1875C24.0308 29.9784 24.4983 29.9538 31.4996 29.9538C38.5009 29.9538 38.9685 29.9784 39.4484 30.1875ZM13.1659 31.5534V32.2916H9.84363H6.52141V31.5534V30.8151H9.84363H13.1659V31.5534ZM56.4779 31.5534V32.2916H53.1556H49.8334V31.5534V30.8151H53.1556H56.4779V31.5534ZM17.4725 36.106V38.0748L9.69598 38.0501L1.9072 38.0132L1.87029 36.2291C1.85799 35.257 1.87029 34.3834 1.8949 34.2973C1.94412 34.1742 3.48219 34.1373 9.72059 34.1373H17.4725V36.106ZM21.1884 41.4462C21.2253 48.6567 21.2253 48.7674 21.4837 49.1119C21.6314 49.2965 22.3697 49.8256 23.1448 50.2686C30.7367 54.6367 31.0444 54.8089 31.4996 54.8089C31.9549 54.8089 32.3856 54.5752 39.8544 50.2686C40.6296 49.8256 41.3679 49.2965 41.5155 49.1119C41.7739 48.7674 41.7739 48.6567 41.8108 41.4462L41.8354 34.1373H42.6968H43.5581V42.0491C43.5581 49.4442 43.5458 49.9856 43.3489 50.1578C43.2259 50.2563 40.5066 51.8435 37.3197 53.6892L31.4996 57.0361L25.6919 53.6892C22.4927 51.8435 19.7734 50.2563 19.6627 50.1578C19.4535 49.9856 19.4412 49.4442 19.4412 42.0491V34.1373H20.3025H21.1638L21.1884 41.4462ZM39.8421 41.0525L39.8052 47.9799L35.7447 50.3424C33.5176 51.6344 31.5981 52.6926 31.4996 52.6926C31.4012 52.6926 29.494 51.6344 27.2546 50.3424L23.1941 47.9799L23.1571 41.0525L23.1325 34.1373H31.4996H39.8667L39.8421 41.0525ZM61.0921 36.106V38.0132L53.3156 38.0501L45.5268 38.0748V36.106V34.1373L53.3156 34.1619L61.0921 34.1988V36.106ZM17.4848 45.113C17.4971 50.6623 17.5094 50.8346 18.1 51.4621C18.4199 51.7943 29.8139 58.4388 30.6998 58.8079C31.2412 59.0417 31.758 59.0417 32.3117 58.8079C33.21 58.4388 44.5794 51.7943 44.887 51.4621C45.4899 50.8223 45.5022 50.6623 45.5145 45.113L45.5268 39.9204H46.2651H47.0034V50.6869V61.4534H31.4996H15.9959V50.6869V39.9204H16.7342H17.4725L17.4848 45.113ZM58.5696 47.8569V55.7933H56.1702C53.8693 55.7933 53.7709 55.8056 53.5248 56.064C53.2048 56.4208 53.2048 56.9991 53.5494 57.356C53.8078 57.6267 53.8693 57.639 56.1948 57.639H58.5696V59.3985C58.5696 60.6044 58.5204 61.2073 58.422 61.3057C58.3112 61.4165 57.0808 61.4534 53.6232 61.4534H48.9721V59.5462V57.639H49.698C50.3379 57.639 50.4609 57.6021 50.6824 57.3191C51.0146 56.9007 51.0146 56.4331 50.6701 56.0763C50.4486 55.8425 50.2764 55.7933 49.6857 55.7933H48.9721V47.8569V39.9204H53.7709H58.5696V47.8569ZM14.0272 59.5462V61.4534H9.42528C6.89054 61.4534 4.73725 61.4165 4.62651 61.3796C4.45424 61.318 4.42964 61.035 4.42964 59.4724V57.639H9.22841H14.0272V59.5462Z" fill="#C0304F"/>
</svg>
