<svg width="63" height="64" viewBox="0 0 63 64" fill="none" xmlns="http://www.w3.org/2000/svg">
<path d="M19.4172 0.581738C18.6666 1.22157 18.6174 2.05828 19.2818 3.01804C19.5279 3.38717 19.9832 4.03931 20.2785 4.48228C21.472 6.22952 22.5302 8.80117 22.9609 11.0037C23.1208 11.8527 23.17 13.0955 23.2193 17.7958L23.2808 23.5543H20.5246C17.916 23.5543 17.7561 23.5666 17.4977 23.8004C17.0916 24.1818 17.1285 24.9324 17.5469 25.2646C17.8545 25.5107 18.0267 25.523 20.8445 25.523H23.8099L24.9788 26.692L26.1477 27.8609H19.6017C15.9596 27.8609 12.502 27.7994 11.8006 27.7379C10.361 27.5902 8.35538 27.1595 7.0757 26.7289L6.21439 26.4459L6.17747 25.2031L6.14056 23.9604L7.53097 24.4279C9.30283 25.0186 10.3733 25.24 12.3913 25.4246C13.8555 25.56 14.0278 25.5477 14.3231 25.3508C14.7907 25.0432 14.926 24.6248 14.7168 24.108C14.5076 23.6281 14.4338 23.6035 12.8588 23.4928C9.69657 23.2713 6.62044 22.2377 4.18414 20.5766C3.74117 20.2813 3.08903 19.826 2.7199 19.5799C1.99393 19.0755 1.3664 18.9893 0.751168 19.2969C-0.0486271 19.7153 0.000591098 18.9032 0.000591098 31.7984C0.000591098 44.6935 -0.0486271 43.8814 0.751168 44.2998C1.3664 44.6074 1.99393 44.5213 2.7199 44.0168C3.08903 43.7707 3.74117 43.3154 4.18414 43.0201C5.93138 41.8266 8.49073 40.7807 10.7055 40.3377C11.5669 40.1655 12.785 40.1285 17.51 40.0793L23.2808 40.0178L23.2193 45.7886C23.17 50.489 23.1208 51.744 22.9609 52.593C22.5302 54.7956 21.472 57.3672 20.2785 59.1144C19.9832 59.5574 19.5279 60.2096 19.2818 60.5787C18.7773 61.3047 18.6912 61.9322 18.9988 62.5474C19.4172 63.3472 18.6051 63.298 31.5002 63.298C44.3954 63.298 43.5833 63.3472 44.0016 62.5474C44.3093 61.9322 44.2231 61.3047 43.7186 60.5787C43.4725 60.2096 43.0173 59.5574 42.722 59.1144C41.5284 57.3672 40.4702 54.7956 40.0396 52.593C39.8796 51.744 39.8304 50.5013 39.7812 45.7886L39.7197 40.0424H42.7589H45.7858L46.1057 39.7225C46.3641 39.4641 46.401 39.3287 46.3518 38.9596C46.2042 38.1229 46.2534 38.1352 42.5374 38.0983L39.1783 38.0614L38.0216 36.9047L36.8527 35.7358H43.3987C47.0409 35.7358 50.4984 35.7973 51.1998 35.8589C52.6517 36.0065 54.9281 36.4864 56.0355 36.8801L56.7861 37.1508L56.823 38.4059L56.8599 39.661L55.8386 39.2918C53.6976 38.5043 50.0801 37.8891 49.3172 38.1844C48.6897 38.4182 48.5174 39.3164 49.0096 39.7594C49.2065 39.9563 49.5264 40.0301 50.2647 40.1039C53.4638 40.3869 56.4292 41.3959 58.8163 43.0201C59.2593 43.3154 59.9114 43.7707 60.2806 44.0168C61.0065 44.5213 61.6341 44.6074 62.2493 44.2998C63.0491 43.8814 62.9999 44.6935 62.9999 31.7984C62.9999 18.9032 63.0491 19.7153 62.2493 19.2969C61.6341 18.9893 61.0065 19.0755 60.2806 19.5799C59.9114 19.826 59.2593 20.2813 58.8163 20.5766C57.0691 21.7702 54.5097 22.816 52.2949 23.259C51.4336 23.4313 50.2154 23.4682 45.4905 23.5174L39.7197 23.5789L39.7812 17.8081C39.8304 13.0831 39.8673 11.865 40.0396 11.0037C40.4825 8.78887 41.5284 6.22952 42.722 4.48228C43.0173 4.03931 43.4725 3.38717 43.7186 3.01804C44.2231 2.29207 44.3093 1.66454 44.0016 1.04931C43.6079 0.311035 43.571 0.298733 39.3259 0.298733H35.45L35.2039 0.618652C34.8717 1.03701 34.8717 1.40614 35.2039 1.81219L35.45 2.14441L38.6369 2.16902L41.836 2.20594L41.0978 3.30104C40.6917 3.91627 40.3595 4.44536 40.3595 4.50689C40.3595 4.5561 36.3728 4.60532 31.5002 4.60532C26.6276 4.60532 22.641 4.5561 22.641 4.50689C22.641 4.44536 22.3087 3.91627 21.9027 3.30104L21.1644 2.20594L26.7138 2.14441C32.017 2.08289 32.2631 2.07059 32.4354 1.84911C32.6938 1.49227 32.6569 0.840134 32.3615 0.544823C32.1278 0.311035 31.9555 0.298733 25.9386 0.298733H19.7494L19.4172 0.581738ZM26.5661 7.76759C27.4766 10.9053 27.5628 12.025 27.5628 19.9614V26.4459L26.3938 25.277L25.2249 24.108V18.7555C25.2249 11.9265 25.1019 10.7084 24.1298 7.82911L23.6622 6.451H24.9173H26.1724L26.5661 7.76759ZM34.6994 6.53714C34.6994 6.59866 34.5641 7.09084 34.3918 7.65685C34.2318 8.21055 33.9734 9.37949 33.8135 10.2408C33.5305 11.7789 33.5305 11.9634 33.5305 20.5643C33.5305 28.8207 33.5428 29.3375 33.752 29.5466C33.9611 29.7558 34.4779 29.7681 42.7343 29.7681C51.3352 29.7681 51.5197 29.7681 53.0578 29.4851C53.9191 29.3251 55.088 29.0668 55.6417 28.9068C56.2077 28.7345 56.6999 28.5992 56.7615 28.5992C56.8107 28.5992 56.8476 30.0388 56.8476 31.7984C56.8476 33.5579 56.8107 34.9975 56.7615 34.9975C56.6999 34.9975 56.2077 34.8622 55.6417 34.6899C55.088 34.53 53.9191 34.2716 53.0578 34.1116C51.5197 33.8286 51.3352 33.8286 42.7343 33.8286C34.4779 33.8286 33.9611 33.8409 33.752 34.0501C33.5428 34.2593 33.5305 34.7761 33.5305 43.0324C33.5305 51.6333 33.5305 51.8179 33.8135 53.3559C33.9734 54.2172 34.2318 55.3862 34.3918 55.9399C34.5641 56.5059 34.6994 56.9981 34.6994 57.0473C34.6994 57.1088 33.2598 57.1457 31.5002 57.1457C29.7407 57.1457 28.301 57.1088 28.301 57.0473C28.301 56.9981 28.4364 56.5059 28.6087 55.9399C29.1747 53.9958 29.4454 51.9901 29.4577 49.4923C29.47 46.9206 29.4577 46.8591 28.6456 46.7238C28.2764 46.6746 28.1411 46.7115 27.895 46.9576C27.612 47.2406 27.5997 47.339 27.5259 49.4554C27.4889 50.6735 27.3659 52.1993 27.2552 52.8391C27.0583 54.0696 26.5415 56.0752 26.2708 56.7397L26.0985 57.1457H24.8804H23.6622L24.1298 55.7553C25.1019 52.8883 25.2249 51.6702 25.2249 44.8412V39.4887L26.3938 38.3198L27.5628 37.1508V40.4731C27.5628 43.6969 27.5751 43.783 27.8335 44.066C28.2026 44.4597 28.8301 44.4474 29.2362 44.0414L29.5438 43.7338L29.5069 38.9965C29.47 34.653 29.4577 34.247 29.2485 34.0501C29.0393 33.8409 28.5102 33.8286 20.2662 33.8286C11.6653 33.8286 11.4807 33.8286 9.94266 34.1116C9.08134 34.2716 7.91241 34.53 7.35871 34.6899C6.7927 34.8622 6.30052 34.9975 6.2513 34.9975C6.18978 34.9975 6.15286 33.5579 6.15286 31.7984C6.15286 30.0388 6.18978 28.5992 6.2513 28.5992C6.30052 28.5992 6.7927 28.7345 7.35871 28.9068C7.91241 29.0668 9.08134 29.3251 9.94266 29.4851C11.4807 29.7681 11.6653 29.7681 20.2662 29.7681C28.5225 29.7681 29.0393 29.7558 29.2485 29.5466C29.4577 29.3375 29.47 28.8207 29.47 20.5643C29.47 11.9634 29.47 11.7789 29.187 10.2408C29.027 9.37949 28.7686 8.21055 28.6087 7.65685C28.4364 7.09084 28.301 6.59866 28.301 6.53714C28.301 6.48792 29.7407 6.451 31.5002 6.451C33.2598 6.451 34.6994 6.48792 34.6994 6.53714ZM38.9937 7.45998C38.4769 8.875 38.0585 10.7084 37.8986 12.2218C37.8371 12.9232 37.7755 15.8763 37.7755 18.8048V24.108L36.5943 25.277L35.4254 26.4459L35.4746 19.0632C35.5238 12.8494 35.5607 11.5205 35.733 10.6345C35.9791 9.40409 36.4959 7.42306 36.7297 6.84475L36.9019 6.451H38.1324H39.3628L38.9937 7.45998ZM3.12595 22.2869C3.66735 22.6438 4.14722 22.9391 4.20875 22.9391C4.25796 22.9391 4.30718 26.9258 4.30718 31.7984C4.30718 36.671 4.25796 40.6576 4.20875 40.6576C4.14722 40.6576 3.66735 40.9529 3.12595 41.3098C2.59685 41.6666 2.08006 42.0111 2.00623 42.0604C1.88319 42.1342 1.84627 40.0424 1.84627 31.7984C1.84627 23.5543 1.88319 21.4625 2.00623 21.5364C2.08006 21.5856 2.59685 21.9301 3.12595 22.2869ZM61.1296 36.9663L61.0927 42.1342L59.9975 41.3959C59.3823 40.9899 58.8532 40.6576 58.7917 40.6576C58.7425 40.6576 58.6933 36.671 58.6933 31.7984C58.6933 26.9258 58.7425 22.9391 58.7917 22.9391C58.8532 22.9391 59.3823 22.6069 59.9975 22.2008L61.0927 21.4625L61.1296 26.6305C61.1419 29.4728 61.1419 34.1239 61.1296 36.9663ZM56.7984 26.3351C56.663 26.692 53.3654 27.5164 51.1998 27.7256C50.4861 27.7994 47.1024 27.8609 43.3987 27.8609H36.8527L38.0216 26.692L39.1906 25.523H44.543C51.3475 25.523 52.5779 25.4 55.4326 24.4402L56.7861 23.985L56.823 25.0801C56.8353 25.683 56.8353 26.249 56.7984 26.3351ZM24.9788 36.9047L23.8099 38.0737H18.4574C11.6284 38.0737 10.4102 38.1967 7.54328 39.1688L6.15286 39.6364V38.3813V37.1262L7.48175 36.7325C10.6317 35.8219 11.21 35.7727 19.3802 35.7481L26.1477 35.7358L24.9788 36.9047ZM37.7755 44.792C37.7755 47.7204 37.8371 50.6735 37.8986 51.3749C38.0585 52.8883 38.4769 54.7217 38.9937 56.1367L39.3628 57.158L38.1078 57.1211L36.8527 57.0842L36.5697 56.2229C36.1144 54.894 35.7084 52.913 35.5607 51.4241C35.4992 50.6735 35.4377 47.1667 35.4377 43.6107V37.1508L36.6066 38.3198L37.7755 39.4887V44.792ZM40.3595 59.0898C40.3595 59.1514 40.6917 59.6805 41.0978 60.2957L41.836 61.3908L36.6681 61.4277C33.8258 61.44 29.1747 61.44 26.3323 61.4277L21.1644 61.3908L21.9027 60.2957C22.3087 59.6805 22.641 59.1514 22.641 59.0898C22.641 59.0406 26.6276 58.9914 31.5002 58.9914C36.3728 58.9914 40.3595 59.0406 40.3595 59.0898Z" fill="#C0304F"/>
</svg>
