<svg width="24" height="25" viewBox="0 0 24 25" fill="none" xmlns="http://www.w3.org/2000/svg">
<path fill-rule="evenodd" clip-rule="evenodd" d="M15.0215 3.61293C15.5299 3.52585 16.0992 3.49677 16.635 3.58742C17.5918 3.7493 18.4757 4.19403 19.1744 4.86079C19.6311 4.87112 20.0799 4.78114 20.477 4.65288C20.8131 4.54433 21.097 4.41326 21.296 4.30962C21.3949 4.25809 21.4713 4.21413 21.521 4.18437C21.5458 4.16952 21.5638 4.15827 21.5745 4.15148L21.5841 4.14542C21.8809 3.94769 22.2761 3.98617 22.529 4.23768C22.7819 4.48924 22.8226 4.88416 22.6264 5.18207C22.4187 5.49736 22.1303 6.05943 21.8073 6.68919C21.7565 6.78821 21.7048 6.8889 21.6525 6.99057C21.4672 7.35054 21.2772 7.71435 21.1001 8.02648C20.9889 8.22247 20.87 8.42144 20.7501 8.59339V8.86716C20.7577 9.87279 20.6424 10.8732 20.4083 11.8464C20.261 12.4587 20.0667 13.0603 19.8265 13.6457C19.2041 15.1624 18.2857 16.5398 17.1249 17.6976C15.9642 18.8553 14.5844 19.7702 13.0662 20.3887C11.5492 21.0067 9.9245 21.3165 8.28665 21.3001C5.91234 21.3021 3.58798 20.6181 1.59326 19.3301C1.29945 19.1404 1.17576 18.7729 1.29509 18.4441C1.41443 18.1154 1.74512 17.9128 2.09219 17.9557C2.39255 17.9929 2.69496 18.0111 2.99762 18.0101C4.08507 18.007 5.15181 17.7667 6.12567 17.3141C5.81612 17.1732 5.52058 16.9994 5.24443 16.7947C4.43271 16.1928 3.8288 15.3528 3.51673 14.3917C3.43564 14.1419 3.49108 13.8679 3.66289 13.6693C3.66597 13.6658 3.66908 13.6623 3.67221 13.6588C3.48869 13.4951 3.31696 13.3169 3.15886 13.1253C2.44754 12.2631 2.05587 11.1817 2.05009 10.0639L2.05007 10.0601L2.05008 10.0101C2.05008 9.74419 2.19083 9.4982 2.42003 9.36348C2.47813 9.32933 2.53972 9.30362 2.60307 9.28638C2.26473 8.6113 2.08879 7.86585 2.09007 7.10959C2.08968 6.25283 2.31347 5.41086 2.73923 4.66736C2.86214 4.45272 3.08297 4.31248 3.3295 4.29251C3.57603 4.27253 3.81656 4.37538 3.97242 4.56743C4.93498 5.75344 6.13626 6.7237 7.49825 7.41517C8.19839 7.77062 8.93294 8.04832 9.68874 8.24475C10.1125 8.35488 10.5429 8.43947 10.9777 8.4979C10.9585 7.77464 11.1013 7.05177 11.4011 6.38384C11.8407 5.40401 12.5932 4.59784 13.5404 4.09174C13.9416 3.87741 14.4741 3.7067 15.0215 3.61293ZM3.74335 11.1604C3.873 11.5253 4.06586 11.8676 4.31592 12.1707C4.80724 12.7663 5.48919 13.1738 6.24641 13.3245C6.58369 13.3916 6.83213 13.6795 6.84916 14.0229C6.86618 14.3664 6.64743 14.6774 6.31843 14.7776C6.04594 14.8605 5.76676 14.9183 5.48441 14.9504C5.67099 15.1909 5.89047 15.4063 6.13787 15.5898C6.69906 16.0059 7.376 16.2367 8.07451 16.2502C8.39143 16.2563 8.6703 16.461 8.77112 16.7615C8.87195 17.062 8.77296 17.3935 8.52386 17.5895C7.47469 18.415 6.26149 18.9907 4.97594 19.2845C6.04142 19.6258 7.15887 19.8014 8.28916 19.8001L8.29786 19.8C9.73792 19.815 11.1665 19.5429 12.5002 18.9996C13.8339 18.4562 15.046 17.6526 16.0656 16.6355C17.0853 15.6185 17.892 14.4085 18.4388 13.0762C18.6498 12.562 18.8205 12.0335 18.9499 11.4956C19.1557 10.6399 19.257 9.76019 19.2501 8.87592L19.2501 8.87006V8.34006C19.2501 8.1582 19.3161 7.98254 19.436 7.84577C19.5053 7.76673 19.6264 7.58417 19.7955 7.28627C19.9561 7.00315 20.1339 6.66324 20.3188 6.30406C20.33 6.28234 20.3412 6.2605 20.3525 6.23856C19.8729 6.34271 19.3293 6.3973 18.7595 6.33571C18.579 6.31621 18.4118 6.23192 18.2887 6.09848C17.7858 5.55315 17.1162 5.19014 16.3848 5.0664C16.0602 5.01149 15.6679 5.02406 15.2748 5.0914C14.8477 5.16456 14.476 5.29257 14.2473 5.41475C13.593 5.76432 13.0733 6.32116 12.7696 6.99795C12.4659 7.67473 12.3954 8.43318 12.5692 9.15434C12.6246 9.38425 12.5683 9.62683 12.4174 9.80886C12.2664 9.99089 12.0384 10.091 11.8022 10.0791C10.9588 10.0364 10.1243 9.90779 9.31142 9.69652C8.45152 9.47303 7.61579 9.15708 6.81921 8.75267C5.64643 8.15726 4.57838 7.38016 3.65354 6.45247C3.61135 6.66809 3.58993 6.88811 3.59008 7.10956L3.59007 7.11148C3.58903 7.6622 3.72418 8.20463 3.98349 8.69048C4.2428 9.17633 4.61822 9.59052 5.07633 9.89617C5.35436 10.0817 5.47608 10.4288 5.37483 10.7473C5.27358 11.0658 4.97378 11.2789 4.63968 11.2698C4.33708 11.2615 4.03702 11.2247 3.74335 11.1604Z" fill="#C0304F"/>
</svg>
