<svg width="24" height="25" viewBox="0 0 24 25" fill="none" xmlns="http://www.w3.org/2000/svg">
<path d="M8.88583 7.43938C9.06879 7.44428 9.27163 7.45418 9.46461 7.88256C9.59259 8.16774 9.80817 8.69274 9.98378 9.12041C10.1204 9.45319 10.2329 9.72704 10.261 9.78309C10.3253 9.91109 10.3649 10.0588 10.2808 10.2311C10.2709 10.2514 10.2615 10.2708 10.2525 10.2896C10.1851 10.4296 10.137 10.5292 10.0236 10.6595C9.97696 10.713 9.92837 10.7717 9.87996 10.8302C9.79482 10.9331 9.71023 11.0353 9.63772 11.1076C9.50912 11.2355 9.37551 11.3734 9.5239 11.6294C9.67238 11.8854 10.1918 12.7274 10.9586 13.4069C11.7829 14.1408 12.4997 14.45 12.862 14.6064C12.9324 14.6367 12.9894 14.6613 13.0312 14.6821C13.2885 14.8101 13.4418 14.7904 13.5902 14.6181C13.7387 14.4457 14.2333 13.8697 14.4065 13.6137C14.5747 13.3577 14.7478 13.3971 14.9853 13.4857C15.2227 13.5743 16.4891 14.1947 16.7463 14.3226C16.7971 14.348 16.8447 14.3708 16.8887 14.3919C17.0677 14.4777 17.1894 14.5361 17.2409 14.623C17.3052 14.7313 17.3052 15.2434 17.0926 15.8441C16.8749 16.4448 15.8262 17.0209 15.3513 17.0652C15.3063 17.0694 15.2616 17.0748 15.2155 17.0804C14.7803 17.133 14.2278 17.1999 12.2595 16.4251C9.83412 15.4713 8.2331 13.1049 7.90941 12.6265C7.88386 12.5887 7.86626 12.5627 7.85685 12.5501L7.85138 12.5428C7.70411 12.3457 6.80316 11.1402 6.80316 9.89638C6.80316 8.70635 7.38938 8.08679 7.65677 7.8042C7.67372 7.78629 7.68938 7.76974 7.70354 7.75447C7.94094 7.49848 8.21802 7.43448 8.39113 7.43448C8.56433 7.43448 8.73744 7.43448 8.88583 7.43938Z" fill="#C0304F"/>
<path fill-rule="evenodd" clip-rule="evenodd" d="M2.18406 21.601C2.10224 21.8979 2.37273 22.1721 2.67078 22.0942L7.27812 20.8908C8.73247 21.6786 10.3699 22.0971 12.037 22.0971H12.0419C17.5279 22.0971 21.9999 17.651 21.9999 12.1858C21.9999 9.53688 20.9659 7.04547 19.0862 5.17444C17.2064 3.3035 14.7082 2.26953 12.0419 2.26953C6.55595 2.26953 2.08399 6.71558 2.08399 12.1809C2.08336 13.9195 2.54228 15.6277 3.41467 17.134L2.18406 21.601ZM4.86079 17.5324C4.96761 17.1447 4.91425 16.7303 4.71269 16.3823C3.97253 15.1043 3.58346 13.655 3.58399 12.1809C3.58399 7.55112 7.37725 3.76953 12.0419 3.76953C14.3118 3.76953 16.4294 4.64652 18.028 6.23758C19.6247 7.8269 20.4999 9.93564 20.4999 12.1858C20.4999 16.8155 16.7066 20.5971 12.0419 20.5971H12.037C10.6205 20.5971 9.22851 20.2413 7.99254 19.5719C7.65802 19.3907 7.26714 19.3433 6.89904 19.4395L4.13664 20.161L4.86079 17.5324Z" fill="#C0304F"/>
</svg>
