<svg width="24" height="25" viewBox="0 0 24 25" fill="none" xmlns="http://www.w3.org/2000/svg">
<path fill-rule="evenodd" clip-rule="evenodd" d="M10.386 8.62742C10.1543 8.4884 9.86573 8.48476 9.6306 8.61789C9.39547 8.75102 9.25012 9.00033 9.25012 9.27054V15.2705C9.25012 15.5407 9.39547 15.7901 9.6306 15.9232C9.86573 16.0563 10.1543 16.0527 10.386 15.9137L15.386 12.9137C15.6119 12.7781 15.7501 12.534 15.7501 12.2705C15.7501 12.0071 15.6119 11.763 15.386 11.6274L10.386 8.62742ZM13.5424 12.2705L10.7501 13.9459V10.5952L13.5424 12.2705Z" fill="#C0304F"/>
<path fill-rule="evenodd" clip-rule="evenodd" d="M17.0308 4.91182C13.6821 4.64984 10.3182 4.64984 6.96951 4.91182L4.72881 5.08712C3.36624 5.19372 2.25155 6.21493 2.02632 7.56297C1.50555 10.6797 1.50555 13.8613 2.02632 16.9781C2.25155 18.3261 3.36624 19.3474 4.72881 19.454L6.96951 19.6293C10.3182 19.8912 13.6821 19.8912 17.0308 19.6293L19.2715 19.454C20.6341 19.3474 21.7488 18.3261 21.974 16.9781C22.4948 13.8613 22.4948 10.6797 21.974 7.56297C21.7488 6.21493 20.6341 5.19372 19.2715 5.08712L17.0308 4.91182ZM7.0865 6.40725C10.3573 6.15136 13.643 6.15136 16.9138 6.40725L19.1545 6.58255C19.8301 6.63541 20.3828 7.14176 20.4945 7.81017C20.9879 10.7633 20.9879 13.7778 20.4945 16.7309C20.3828 17.3993 19.8301 17.9057 19.1545 17.9585L16.9138 18.1338C13.643 18.3897 10.3573 18.3897 7.0865 18.1338L4.8458 17.9585C4.17019 17.9057 3.61749 17.3993 3.50581 16.7309C3.01239 13.7778 3.01239 10.7633 3.50581 7.81017C3.61749 7.14176 4.17019 6.63541 4.8458 6.58255L7.0865 6.40725Z" fill="#C0304F"/>
</svg>
