<svg width="24" height="25" viewBox="0 0 24 25" fill="none" xmlns="http://www.w3.org/2000/svg">
<path d="M16.0002 7.26958C16.0002 6.71729 16.4479 6.26958 17.0002 6.26958C17.5525 6.26958 18.0002 6.71729 18.0002 7.26958C18.0002 7.82186 17.5525 8.26958 17.0002 8.26958C16.4479 8.26958 16.0002 7.82186 16.0002 7.26958Z" fill="#C0304F"/>
<path fill-rule="evenodd" clip-rule="evenodd" d="M12.0002 7.51958C9.37683 7.51958 7.25018 9.64622 7.25018 12.2696C7.25018 14.8929 9.37683 17.0196 12.0002 17.0196C14.6235 17.0196 16.7502 14.8929 16.7502 12.2696C16.7502 9.64622 14.6235 7.51958 12.0002 7.51958ZM8.75018 12.2696C8.75018 10.4747 10.2053 9.01958 12.0002 9.01958C13.7951 9.01958 15.2502 10.4747 15.2502 12.2696C15.2502 14.0645 13.7951 15.5196 12.0002 15.5196C10.2053 15.5196 8.75018 14.0645 8.75018 12.2696Z" fill="#C0304F"/>
<path fill-rule="evenodd" clip-rule="evenodd" d="M17.2584 3.10259C13.7919 2.71515 10.2085 2.71515 6.74195 3.10259C4.7299 3.32747 3.10556 4.91248 2.86901 6.93501C2.45447 10.4793 2.45447 14.0598 2.86901 17.6041C3.10556 19.6267 4.7299 21.2117 6.74195 21.4366C10.2085 21.824 13.7919 21.824 17.2584 21.4366C19.2705 21.2117 20.8948 19.6267 21.1314 17.6041C21.5459 14.0598 21.5459 10.4793 21.1314 6.93501C20.8948 4.91248 19.2705 3.32747 17.2584 3.10259ZM6.90856 4.59331C10.2644 4.21825 13.736 4.21825 17.0918 4.59331C18.4219 4.74197 19.4874 5.79158 19.6415 7.10926C20.0425 10.5378 20.0425 14.0014 19.6415 17.4299C19.4874 18.7476 18.4219 19.7972 17.0918 19.9458C13.736 20.3209 10.2644 20.3209 6.90856 19.9458C5.57846 19.7972 4.51297 18.7476 4.35885 17.4299C3.95786 14.0014 3.95786 10.5378 4.35885 7.10926C4.51297 5.79158 5.57845 4.74197 6.90856 4.59331Z" fill="#C0304F"/>
</svg>
