<svg width="63" height="62" viewBox="0 0 63 62" fill="none" xmlns="http://www.w3.org/2000/svg">
<path d="M27.6944 0.244011C27.4114 0.391666 27.0546 0.674671 26.8946 0.896152C26.6362 1.26529 26.6239 1.37603 26.587 4.809L26.5501 8.35271H25.8856C24.7905 8.35271 24.2368 8.68493 24.2245 9.34938C24.2245 9.53394 24.3353 9.81695 24.4829 10.0015C24.729 10.3214 24.7536 10.3214 26.304 10.3214C28.6172 10.3214 28.4081 10.7275 28.4081 6.13789C28.4081 4.05842 28.445 2.26196 28.4819 2.15121C28.5434 1.97895 28.9249 1.95435 31.4842 1.95435C34.0436 1.95435 34.425 1.97895 34.4865 2.15121C34.5234 2.26196 34.5603 4.04612 34.5603 6.12558C34.5603 9.64468 34.5726 9.92769 34.7818 10.1123C34.991 10.2968 35.4832 10.3214 39.273 10.3214C42.9767 10.3214 43.555 10.346 43.7149 10.5183C43.8872 10.6783 43.9118 11.1089 43.9118 13.373C43.9118 14.8372 43.8626 16.1046 43.8134 16.1907C43.7395 16.3014 42.5952 16.3507 39.396 16.3753C35.3478 16.4122 35.0648 16.4245 34.8187 16.646L34.5603 16.8798V29.2089C34.5603 38.6219 34.5234 41.5627 34.4127 41.6734C34.2035 41.8826 28.7649 41.8826 28.5557 41.6734C28.445 41.5627 28.4081 38.6219 28.4081 29.2089V16.8798L28.1497 16.646C27.9036 16.4245 27.6206 16.4122 23.5724 16.3753C20.3732 16.3507 19.2289 16.3014 19.1551 16.1907C19.1058 16.1046 19.0566 14.8372 19.0566 13.373C19.0566 10.1861 18.9951 10.3214 20.4101 10.3214C21.3084 10.3214 21.3945 10.2968 21.6283 10.0015C21.7759 9.81695 21.8867 9.53394 21.8867 9.34938C21.8744 8.67263 21.3207 8.35271 20.1886 8.35271C18.7121 8.36501 18.0476 8.64802 17.4939 9.46012C17.2109 9.85386 17.2109 9.93999 17.2109 13.3976C17.2109 16.8675 17.2109 16.9413 17.4939 17.3473C17.6416 17.5688 17.9615 17.8887 18.183 18.0364C18.6014 18.3194 18.6506 18.3194 22.5757 18.3194H26.5624V30.2794V42.2517L26.8454 42.7316C27.0177 43.0392 27.3253 43.3222 27.6575 43.5068C28.1866 43.7775 28.285 43.7898 31.4596 43.7898C34.5234 43.7898 34.7572 43.7775 35.2617 43.5314C35.6185 43.3591 35.9015 43.1007 36.0984 42.7562L36.406 42.2271V30.2794V18.3194H40.3927C44.3178 18.3194 44.3671 18.3194 44.7854 18.0364C45.0069 17.8887 45.3268 17.5688 45.4745 17.3473C45.7575 16.9413 45.7575 16.8675 45.7575 13.3976C45.7575 9.93999 45.7575 9.85386 45.4868 9.46012C45.093 8.89411 44.6501 8.58649 44.0225 8.46345C43.7272 8.41423 41.8939 8.36501 39.9497 8.35271H36.406V4.95665C36.406 1.10533 36.3691 0.94537 35.5078 0.379364L35.0156 0.0471382L31.6196 0.0102272C28.3589 -0.0143814 28.1989 -0.0143814 27.6944 0.244011Z" fill="#232526"/>
<path d="M30.8075 3.98494L30.4999 4.28025V8.35305V12.4136H25.9719C21.5791 12.4136 21.4315 12.4259 21.1731 12.6596C20.767 13.0411 20.8039 13.7917 21.2223 14.1239C21.5422 14.37 21.6899 14.3823 26.0211 14.3823H30.4999V26.9329V39.4959L30.8075 39.7912C31.2013 40.1972 31.7673 40.1972 32.161 39.7912L32.4687 39.4959V26.9329V14.3823H36.9475C41.2787 14.3823 41.4264 14.37 41.7463 14.1239C42.1646 13.7917 42.2015 13.0411 41.7955 12.6596C41.5371 12.4259 41.3894 12.4136 36.9967 12.4136H32.4687V8.35305V4.28025L32.161 3.98494C31.9765 3.78807 31.7181 3.67733 31.4843 3.67733C31.2505 3.67733 30.9921 3.78807 30.8075 3.98494Z" fill="#232526"/>
<path d="M9.48359 13.7669C9.2498 13.9884 9.21289 14.1483 9.21289 15.0589C9.21289 16.277 9.39746 16.5969 10.1357 16.5969C10.874 16.5969 11.0586 16.277 11.0586 15.0589C11.0586 14.1483 11.0217 13.9884 10.7879 13.7669C10.6402 13.6315 10.3572 13.5208 10.1357 13.5208C9.91425 13.5208 9.63125 13.6315 9.48359 13.7669Z" fill="#232526"/>
<path d="M52.1799 13.7669C51.9461 13.9884 51.9092 14.1483 51.9092 15.0589C51.9092 16.277 52.0937 16.5969 52.832 16.5969C53.5703 16.5969 53.7549 16.277 53.7549 15.0589C53.7549 14.1483 53.7179 13.9884 53.4842 13.7669C53.3365 13.6315 53.0535 13.5208 52.832 13.5208C52.6105 13.5208 52.3275 13.6315 52.1799 13.7669Z" fill="#232526"/>
<path d="M7.01025 16.3632C6.37041 16.6216 6.19815 17.3106 6.64111 17.8766C6.8749 18.1719 6.96103 18.1965 7.93309 18.1965C8.80671 18.1965 9.00358 18.1596 9.21276 17.9504C9.47115 17.692 9.53268 17.1014 9.3358 16.72C9.10202 16.2893 7.73621 16.0678 7.01025 16.3632Z" fill="#232526"/>
<path d="M11.3539 16.4001C10.9355 16.5846 10.8125 16.7938 10.8125 17.3475C10.8125 17.9997 11.1693 18.1965 12.3383 18.1965C13.3103 18.1965 13.3965 18.1719 13.6302 17.8766C14.0855 17.2983 13.9009 16.6092 13.2242 16.3509C12.7566 16.1786 11.8092 16.2032 11.3539 16.4001Z" fill="#232526"/>
<path d="M49.7075 16.3632C49.0677 16.6216 48.8954 17.3106 49.3384 17.8766C49.5722 18.1719 49.6583 18.1965 50.6304 18.1965C51.504 18.1965 51.7008 18.1596 51.91 17.9504C52.1684 17.692 52.2299 17.1014 52.0331 16.72C51.7993 16.2893 50.4335 16.0678 49.7075 16.3632Z" fill="#232526"/>
<path d="M54.0502 16.4001C53.6318 16.5846 53.5088 16.7938 53.5088 17.3475C53.5088 17.9997 53.8656 18.1965 55.0346 18.1965C56.0066 18.1965 56.0927 18.1719 56.3265 17.8766C56.7818 17.2983 56.5972 16.6092 55.9205 16.3509C55.4529 16.1786 54.5055 16.2032 54.0502 16.4001Z" fill="#232526"/>
<path d="M9.45898 18.1963C9.2498 18.4055 9.21289 18.6024 9.21289 19.476C9.21289 20.4481 9.2375 20.5342 9.53281 20.768C9.71738 20.9156 9.98808 21.0264 10.1357 21.0264C10.2834 21.0264 10.5541 20.9156 10.7387 20.768C11.034 20.5342 11.0586 20.4481 11.0586 19.476C11.0586 18.2701 10.874 17.9502 10.1357 17.9502C9.86503 17.9502 9.60664 18.0487 9.45898 18.1963Z" fill="#232526"/>
<path d="M52.1553 18.1963C51.9461 18.4055 51.9092 18.6024 51.9092 19.476C51.9092 20.4481 51.9338 20.5342 52.2291 20.768C52.4137 20.9156 52.6844 21.0264 52.832 21.0264C52.9797 21.0264 53.2504 20.9156 53.4349 20.768C53.7303 20.5342 53.7549 20.4481 53.7549 19.476C53.7549 18.2701 53.5703 17.9502 52.832 17.9502C52.5613 17.9502 52.3029 18.0487 52.1553 18.1963Z" fill="#232526"/>
<path d="M13.4329 21.9492C13.0761 22.0969 12.8792 22.4168 11.7964 24.5947C10.5783 27.0433 10.566 27.0925 10.566 27.9539C10.566 28.9997 10.8982 29.8365 11.5873 30.5009L12.0302 30.9316L9.5447 32.888C7.9082 34.18 6.92384 34.8813 6.62853 34.9428C6.39474 34.9921 6.05021 35.2135 5.86564 35.4227L5.52112 35.7919V38.7326V41.6857L5.84104 41.9318C6.25939 42.264 6.62853 42.264 7.04688 41.9318L7.3668 41.6857V39.2248V36.7762H13.9497H20.5327V42.5594V48.3425H13.9497H7.3668V46.6814C7.3668 45.1433 7.35449 45.008 7.0961 44.7742C6.94844 44.6388 6.66544 44.5281 6.44396 44.5281C6.22248 44.5281 5.93947 44.6388 5.79182 44.7742C5.53342 45.008 5.52112 45.1433 5.52112 46.6814V48.3425H3.5893C1.4114 48.3425 0.857696 48.5024 0.328601 49.2407C0.0702057 49.6099 0.0455966 49.7821 0.00868299 51.6647C-0.0159261 53.5842 -0.00362156 53.7196 0.254774 54.1748C0.427037 54.4701 0.746956 54.7655 1.07918 54.95L1.62058 55.233H12.0671H22.5137L25.9097 57.9523C27.78 59.4535 29.5642 60.7947 29.8718 60.9423C30.6716 61.2992 32.2958 61.2992 33.0833 60.9423C33.3909 60.7947 35.1874 59.4535 37.0577 57.9523L40.466 55.233H50.888C61.2115 55.233 61.3099 55.233 61.839 54.9746C62.1958 54.8024 62.4788 54.544 62.688 54.1871C62.9956 53.658 62.9956 53.5965 62.9587 51.6401C62.9218 49.7944 62.8972 49.6099 62.6388 49.2407C62.1097 48.5024 61.556 48.3425 59.3781 48.3425H57.4463V42.0549V35.7672L57.0279 35.3489C56.7818 35.1028 56.4865 34.9305 56.3143 34.9305C56.1051 34.9305 55.1822 34.2784 53.4719 32.9249L50.9372 30.9069L51.3801 30.4886C52.0569 29.8365 52.4014 28.9997 52.4014 27.9539C52.4014 27.0925 52.3891 27.0433 51.171 24.5947C50.0266 22.2938 49.9036 22.1092 49.4852 21.9369C49.1038 21.777 48.9808 21.7647 48.5993 21.9123C48.181 22.06 48.0702 22.2322 46.9382 24.4717C45.6585 26.9941 45.474 27.597 45.6585 28.6306C45.7939 29.3812 46.0769 29.9103 46.6183 30.464L47.0859 30.9316L44.588 32.9003C43.0131 34.143 41.9426 34.8936 41.6965 34.9428C41.1674 35.0536 40.7244 35.5212 40.5891 36.1118C40.4291 36.7762 40.4414 40.9598 40.5891 41.415C40.8228 42.0549 41.5611 42.2517 42.1148 41.8088L42.4347 41.5627V39.1633V36.7762H49.0177H55.6006V42.5594V48.3425H49.0177H42.4347V46.6445C42.4347 45.0203 42.4224 44.9218 42.1517 44.6757C41.8318 44.3681 41.2535 44.3312 40.9336 44.5773C40.5644 44.848 40.466 45.3648 40.466 46.8782V48.3425H31.4837H22.5014V42.4609C22.5014 39.2371 22.4399 36.3702 22.3783 36.1118C22.243 35.5212 21.8 35.0536 21.2709 34.9428C21.0248 34.8936 19.9543 34.143 18.3794 32.9003L15.8815 30.9316L16.3491 30.464C16.8905 29.9103 17.1735 29.3812 17.3089 28.6306C17.4934 27.6093 17.3089 26.9941 16.0538 24.4963C14.9833 22.343 14.8234 22.0969 14.4419 21.9369C13.9374 21.7278 13.9251 21.7278 13.4329 21.9492ZM15.3894 27.9908C15.3894 28.2 15.3155 28.5076 15.2294 28.6675C15.0694 28.9505 15.0694 28.9382 14.9587 28.3476C14.8234 27.5478 14.5896 27.3017 13.9743 27.3017C13.2484 27.3017 13.0269 27.5601 13.0269 28.3968L13.0146 29.0859L12.7808 28.7906C12.3624 28.2861 12.4609 27.6955 13.2361 26.1328L13.9497 24.7178L14.6634 26.1574C15.0941 27.0064 15.3894 27.757 15.3894 27.9908ZM50.4204 27.9908C50.4327 28.323 50.3466 28.606 50.1866 28.7906L49.9528 29.0859L49.9405 28.4214C49.9405 27.5601 49.719 27.3017 49.0177 27.3017C48.3778 27.3017 48.144 27.5355 48.0087 28.3476C47.898 28.9259 47.8857 28.9505 47.738 28.6798C47.4427 28.1384 47.5534 27.6709 48.2917 26.182L49.0177 24.7055L49.719 26.0959C50.2235 27.1048 50.4204 27.6339 50.4204 27.9908ZM14.5403 32.4819C14.688 32.5681 15.414 33.1095 16.1522 33.6878L17.4811 34.746L15.7585 34.7829C14.7987 34.7952 13.2115 34.7952 12.2148 34.7829L10.406 34.746L11.7349 33.7001C12.4732 33.1218 13.1868 32.5927 13.3222 32.5065C13.6544 32.3097 14.1958 32.3097 14.5403 32.4819ZM49.6452 32.5065C49.7806 32.5927 50.5065 33.1218 51.2325 33.7001L52.5614 34.746L50.8264 34.7829C49.879 34.7952 48.2794 34.7952 47.2827 34.7829L45.474 34.746L46.8029 33.7001C48.4024 32.445 48.5501 32.3589 49.0177 32.3589C49.2268 32.3589 49.4975 32.4204 49.6452 32.5065ZM18.2194 51.7878L20.0774 53.2643H11.0951C4.27836 53.2643 2.08815 53.2274 1.97741 53.1166C1.81745 52.9567 1.76823 50.8649 1.90358 50.5081C1.97741 50.3358 2.72799 50.3112 9.17557 50.3112H16.3737L18.2194 51.7878ZM43.2222 50.422C42.6193 51.0003 32.5542 58.9736 32.2343 59.1213C31.6929 59.3797 30.8931 59.2935 30.3517 58.9121C29.9702 58.6414 19.9913 50.6557 19.7452 50.422C19.6713 50.3604 24.5193 50.3112 31.4837 50.3112C38.5711 50.3112 43.2961 50.3604 43.2222 50.422ZM61.0638 50.5081C61.1992 50.8649 61.1499 52.9567 60.99 53.1166C60.8792 53.2274 58.689 53.2643 51.8723 53.2643H42.9023L44.7234 51.7878L46.5568 50.3235L53.7672 50.3112C60.2394 50.3112 60.99 50.3358 61.0638 50.5081Z" fill="#232526"/>
</svg>
