<svg width="59" height="64" viewBox="0 0 59 64" fill="none" xmlns="http://www.w3.org/2000/svg">
<path d="M28.0304 0.450294C27.329 0.770214 4.15959 17.0245 3.71662 17.5044C3.48284 17.7628 3.21214 18.1934 3.13831 18.4641C3.02757 18.821 2.99065 23.3491 2.99065 36.4165V53.8889L2.36312 53.9505C1.58794 54.0243 0.837359 54.5288 0.480528 55.2178C0.246741 55.6608 0.222132 55.9561 0.185219 58.3678C0.16061 60.0658 0.197523 61.2224 0.283655 61.5424C0.443614 62.1576 1.05884 62.8835 1.60024 63.105C2.19086 63.3634 56.2078 63.3634 56.7984 63.105C57.3398 62.8835 57.955 62.1576 58.115 61.5424C58.2134 61.2101 58.2381 60.0535 58.2134 58.3063C58.1888 56.0668 58.1396 55.5254 57.9674 55.2178C57.549 54.4549 56.7123 53.9258 55.9002 53.9258H55.408V36.4411C55.408 23.3491 55.3711 18.821 55.2604 18.4641C55.1865 18.1934 54.9158 17.7628 54.682 17.5044C54.3375 17.123 34.2319 2.97273 30.9712 0.807129C30.3313 0.376469 30.1837 0.339554 29.3347 0.302643C28.7318 0.290337 28.2642 0.339554 28.0304 0.450294ZM41.2209 10.3801C47.6438 14.8589 53.0086 18.6487 53.1686 18.821L53.4393 19.1163V36.5272V53.9258H52.4549H51.4706V39.1358V24.3457L51.1999 24.0627C50.72 23.5459 49.8956 23.7428 49.6249 24.4442C49.5387 24.6656 49.5018 29.5628 49.5018 39.3573V53.9258H33.1737H16.8456L16.5626 54.1965C16.2057 54.5288 16.1934 55.144 16.5133 55.5377L16.7471 55.833L36.3606 55.87C54.5959 55.8946 55.974 55.9069 56.1217 56.1037C56.2201 56.2514 56.2693 56.9774 56.2693 58.6754C56.2693 60.9887 56.257 61.0502 55.9986 61.2347C55.7525 61.407 53.0086 61.4316 29.1993 61.4316C5.39004 61.4316 2.64613 61.407 2.40004 61.2347C2.14164 61.0502 2.12934 60.9887 2.12934 58.7123C2.12934 57.3342 2.17855 56.276 2.25238 56.1284C2.37543 55.9069 2.5723 55.8946 7.7279 55.8946C11.4316 55.8946 13.1665 55.8577 13.3757 55.7592C13.9909 55.4762 14.077 54.4919 13.5356 54.1104C13.3265 53.9628 12.8097 53.9258 11.087 53.9258H8.89684L8.92144 37.4131L8.95836 20.8881L18.4944 14.2191C23.7361 10.5523 28.0673 7.55002 28.1288 7.53771C28.1781 7.53771 28.215 8.41133 28.215 9.49414V11.4506L27.6367 11.5367C26.8615 11.6474 25.6187 12.1396 24.7697 12.681C23.2439 13.6285 21.9889 15.2404 21.3859 17.0245C21.0537 18.0089 21.0291 18.2058 20.9553 20.9497L20.8815 23.8412L19.5526 27.6556C18.8143 29.8089 18.2114 31.7654 18.1745 32.1468C18.1129 32.639 18.1622 33.0081 18.3344 33.5249L18.5805 34.2386H17.1778C15.8489 34.2386 15.7628 34.2509 15.4798 34.5462C15.0737 34.9399 15.0737 35.5059 15.4798 35.8997L15.7751 36.2073H20.3401H24.8927V37.3393C24.8927 38.6928 25.1019 39.2465 25.8402 39.911C26.1109 40.1571 26.3939 40.3785 26.4554 40.4031C26.5292 40.4401 26.4308 41.7074 26.2093 43.7746C25.8402 47.0353 25.8402 47.1091 26.0494 47.8228C26.4431 49.1517 27.7597 50.1114 29.1993 50.1114C30.639 50.1114 31.9555 49.1517 32.3493 47.8228C32.5585 47.1091 32.5585 47.0353 32.1893 43.7746C31.9679 41.7074 31.8694 40.4401 31.9432 40.4031C32.0048 40.3785 32.2878 40.1571 32.5585 39.911C33.2967 39.2465 33.5059 38.6928 33.5059 37.3393V36.2073H38.0586H42.6236L42.9189 35.8997C43.3249 35.5059 43.3249 34.9399 42.9189 34.5462C42.6359 34.2509 42.5498 34.2386 41.2209 34.2386H39.8181L40.0642 33.5249C40.2365 33.0081 40.2857 32.639 40.2242 32.1468C40.1873 31.7531 39.5967 29.8212 38.8461 27.6556L37.5172 23.8412L37.4434 20.9497C37.3695 18.2058 37.3449 18.0089 37.0127 17.0245C36.6067 15.831 35.77 14.4898 34.9086 13.6777C33.7766 12.5949 32.1155 11.7336 30.762 11.5367L30.1837 11.4506V9.43261V7.42697L40.0027 14.2929C45.4044 18.0704 49.9448 21.2327 50.0924 21.3065C50.4739 21.5034 50.7815 21.4788 51.1506 21.1835C51.3967 20.9989 51.4706 20.8266 51.4706 20.4821C51.4706 20.236 51.4213 19.9653 51.3721 19.8792C51.3229 19.793 46.4011 16.3232 40.458 12.1642C31.1434 5.64281 29.5685 4.58462 29.1993 4.58462C28.8302 4.58462 27.2429 5.65512 17.9407 12.1519C11.9976 16.3232 7.07576 19.793 7.02654 19.8792C6.97733 19.953 6.92811 27.6556 6.92811 36.9702V53.9258H5.94374H4.95938V36.5395C4.95938 22.4262 4.98399 19.104 5.11934 18.9317C5.20547 18.8087 10.5703 15.0066 17.0301 10.4908C26.48 3.87096 28.8425 2.25906 29.1624 2.25906C29.4946 2.24676 31.4388 3.56335 41.2209 10.3801ZM30.4421 13.4931C32.8046 13.9976 34.7241 15.8925 35.2901 18.2673C35.4131 18.8087 35.4746 19.7684 35.4746 21.4788V23.9028L36.336 26.4252L37.185 28.9476H29.1993H21.2137L22.0627 26.4252L22.924 23.9028V21.4788C22.924 19.7684 22.9855 18.8087 23.1086 18.2673C23.6623 15.9171 25.5818 14.0099 27.895 13.5054C28.8794 13.2839 29.4577 13.2839 30.4421 13.4931ZM38.1078 31.6054C38.3662 32.4421 38.2924 32.9712 37.8494 33.5126C37.2219 34.2509 37.4188 34.2386 29.1993 34.2386C20.9799 34.2386 21.1768 34.2509 20.5492 33.5126C20.1063 32.9712 20.0324 32.4421 20.2908 31.6054L20.5123 30.9163H29.1993H37.8863L38.1078 31.6054ZM31.5372 37.1547C31.5372 37.9545 31.5003 38.1391 31.2665 38.3852C31.0081 38.6559 30.922 38.6682 29.2116 38.6682C27.5505 38.6682 27.4152 38.6559 27.1445 38.3975C26.8984 38.1637 26.8615 38.0161 26.8615 37.1671V36.2073H29.1993H31.5372V37.1547ZM29.8761 40.9076C29.9007 41.0676 30.073 42.4826 30.2575 44.0576C30.6144 47.2568 30.5897 47.4783 29.8884 47.9089C29.4085 48.2042 28.9902 48.2042 28.5103 47.9089C27.8089 47.4783 27.7843 47.2568 28.1411 44.0576C28.3257 42.4826 28.498 41.0676 28.5226 40.9076C28.5841 40.6738 28.6702 40.6369 29.1993 40.6369C29.7284 40.6369 29.8146 40.6738 29.8761 40.9076Z" fill="#C0304F"/>
</svg>
