<svg width="18" height="18" viewBox="0 0 18 18" fill="none" xmlns="http://www.w3.org/2000/svg">
<path fill-rule="evenodd" clip-rule="evenodd" d="M8.03241 6.11884C7.86277 6.01706 7.6515 6.0144 7.47935 6.11187C7.3072 6.20934 7.20079 6.39187 7.20079 6.5897V10.9826C7.20079 11.1804 7.3072 11.3629 7.47935 11.4604C7.6515 11.5579 7.86277 11.5552 8.03241 11.4534L11.6931 9.25698C11.8585 9.15775 11.9597 8.97901 11.9597 8.78613C11.9597 8.59325 11.8585 8.41451 11.6931 8.31527L8.03241 6.11884ZM10.3433 8.78613L8.299 10.0127V7.55953L10.3433 8.78613Z" fill="#232526"/>
<path fill-rule="evenodd" clip-rule="evenodd" d="M12.8974 3.3985C10.4457 3.20669 7.98274 3.20669 5.53105 3.3985L3.89054 3.52684C2.89295 3.60489 2.07684 4.35256 1.91193 5.33952C1.53066 7.62144 1.53066 9.95082 1.91193 12.2327C2.07684 13.2197 2.89295 13.9674 3.89054 14.0454L5.53105 14.1738C7.98274 14.3656 10.4457 14.3656 12.8974 14.1738L14.5379 14.0454C15.5355 13.9674 16.3516 13.2197 16.5165 12.2327C16.8977 9.95082 16.8977 7.62144 16.5165 5.33952C16.3516 4.35256 15.5355 3.60489 14.5379 3.52684L12.8974 3.3985ZM5.61671 4.49336C8.01138 4.30602 10.417 4.30602 12.8117 4.49336L14.4522 4.62171C14.9469 4.66041 15.3515 5.03113 15.4333 5.5205C15.7945 7.6826 15.7945 9.88966 15.4333 12.0518C15.3515 12.5411 14.9469 12.9118 14.4522 12.9505L12.8117 13.0789C10.417 13.2662 8.01138 13.2662 5.61671 13.0789L3.9762 12.9505C3.48155 12.9118 3.0769 12.5411 2.99513 12.0518C2.63388 9.88966 2.63388 7.6826 2.99513 5.5205C3.0769 5.03113 3.48155 4.66041 3.9762 4.62171L5.61671 4.49336Z" fill="#232526"/>
</svg>
